<svg width="45" height="45" viewBox="0 0 45 45" fill="none" xmlns="http://www.w3.org/2000/svg">
<path d="M22.1139 37.0474C22.2941 37.0474 22.4772 37.0053 22.6632 36.9211C22.8492 36.8368 22.996 36.7409 23.1037 36.6333L37.7001 22.0368C38.1119 21.625 38.4219 21.1851 38.6302 20.7172C38.8384 20.2492 38.9426 19.7579 38.9426 19.2431C38.9426 18.7097 38.8384 18.1961 38.6302 17.7024C38.4219 17.2087 38.1119 16.7653 37.7001 16.3723L30.4001 9.0723C30.0071 8.66049 29.5812 8.35924 29.1226 8.16856C28.6641 7.97785 28.168 7.88249 27.6346 7.88249C27.1198 7.88249 26.6255 7.97785 26.1517 8.16856C25.6779 8.35924 25.241 8.66049 24.8409 9.0723L23.795 10.1182L27.1713 13.5225C27.5807 13.9132 27.8831 14.359 28.0785 14.8596C28.2738 15.3604 28.3715 15.8798 28.3715 16.4179C28.3715 17.5316 27.9995 18.4605 27.2555 19.2045C26.5115 19.9485 25.5826 20.3205 24.4689 20.3205C23.9307 20.3205 23.4096 20.2316 22.9054 20.0538C22.4012 19.876 21.9537 19.5917 21.563 19.201L18.5096 16.1757C18.4043 16.0704 18.2698 16.0178 18.106 16.0178C17.9422 16.0178 17.8076 16.0704 17.7023 16.1757L10.1742 23.7038C10.0362 23.8419 9.93267 23.9963 9.86365 24.1671C9.7946 24.3379 9.76008 24.5134 9.76008 24.6936C9.76008 25.0305 9.87474 25.3183 10.104 25.557C10.3333 25.7956 10.6164 25.9149 10.9534 25.9149C11.1336 25.9149 11.3166 25.8728 11.5026 25.7886C11.6887 25.7044 11.8355 25.6084 11.9431 25.5008L16.9759 20.468C17.2286 20.2153 17.5415 20.0814 17.9147 20.0661C18.2879 20.0509 18.616 20.1849 18.8991 20.468C19.1635 20.7324 19.2957 21.0529 19.2957 21.4296C19.2957 21.8063 19.1635 22.1268 18.8991 22.3912L13.8944 27.424C13.7564 27.5621 13.6528 27.7165 13.5838 27.8873C13.5148 28.0581 13.4803 28.2336 13.4803 28.4137C13.4803 28.739 13.5978 29.0192 13.833 29.2543C14.0681 29.4895 14.3483 29.6071 14.6736 29.6071C14.8537 29.6071 15.0368 29.5649 15.2229 29.4807C15.4089 29.3965 15.5557 29.3005 15.6633 29.1929L20.9067 23.9776C21.1594 23.7249 21.4723 23.591 21.8455 23.5758C22.2187 23.5605 22.5468 23.6945 22.8299 23.9776C23.0943 24.242 23.2265 24.5625 23.2265 24.9392C23.2265 25.3159 23.0943 25.6364 22.8299 25.9008L17.6146 31.1442C17.4883 31.2518 17.3876 31.3986 17.3128 31.5847C17.2379 31.7707 17.2005 31.9538 17.2005 32.134C17.2005 32.4592 17.318 32.7394 17.5532 32.9745C17.7883 33.2097 18.0685 33.3272 18.3937 33.3272C18.5739 33.3272 18.7494 33.2927 18.9202 33.2237C19.091 33.1547 19.2454 33.0511 19.3835 32.9131L24.6269 27.6977C24.8796 27.4451 25.1925 27.3111 25.5657 27.2959C25.9389 27.2807 26.267 27.4147 26.5501 27.6977C26.8145 27.9622 26.9467 28.2827 26.9467 28.6594C26.9467 29.0361 26.8145 29.3566 26.5501 29.621L21.3067 34.8644C21.1687 35.0024 21.0651 35.1627 20.9961 35.3452C20.9271 35.5277 20.8926 35.7032 20.8926 35.8716C20.8926 36.2086 21.0177 36.4888 21.2681 36.7122C21.5184 36.9357 21.8004 37.0474 22.1139 37.0474ZM22.0859 39.7849C21.054 39.7849 20.1544 39.4269 19.387 38.7109C18.6195 37.9949 18.2183 37.1035 18.1832 36.0366C17.149 35.9664 16.2851 35.5991 15.5914 34.9346C14.8976 34.2701 14.5215 33.3974 14.463 32.3164C13.3821 32.2462 12.5082 31.8683 11.8414 31.1828C11.1745 30.4973 10.8177 29.6351 10.7709 28.5962C9.68527 28.526 8.78915 28.1324 8.08254 27.4153C7.37596 26.6981 7.02267 25.7909 7.02267 24.6936C7.02267 24.1554 7.12502 23.6284 7.32973 23.1125C7.53446 22.5966 7.8322 22.1433 8.22293 21.7525L15.7686 14.2069C16.398 13.5775 17.1724 13.2628 18.0919 13.2628C19.0114 13.2628 19.7859 13.5775 20.4153 14.2069L23.451 17.2427C23.5587 17.369 23.6997 17.4697 23.874 17.5445C24.0483 17.6194 24.2372 17.6568 24.4408 17.6568C24.773 17.6568 25.0597 17.5469 25.3007 17.3269C25.5417 17.107 25.6622 16.8192 25.6622 16.4635C25.6622 16.26 25.6247 16.071 25.5498 15.8967C25.475 15.7224 25.3744 15.5814 25.248 15.4738L18.8465 9.0723C18.4534 8.66049 18.0247 8.35924 17.5602 8.16856C17.0958 7.97785 16.5968 7.88249 16.0634 7.88249C15.5486 7.88249 15.0602 7.97785 14.5981 8.16856C14.136 8.35924 13.699 8.66049 13.2872 9.0723L7.29286 15.0948C6.96059 15.427 6.68859 15.8195 6.47686 16.2722C6.2651 16.725 6.1405 17.1865 6.10305 17.6568C6.06564 18.0452 6.08319 18.4295 6.15571 18.8097C6.22825 19.1899 6.35577 19.5473 6.53827 19.8819L4.52379 21.8964C4.11201 21.3021 3.802 20.6364 3.59377 19.8994C3.38551 19.1624 3.30008 18.4149 3.33749 17.6568C3.37494 16.8168 3.56446 16.0055 3.90607 15.2229C4.24765 14.4402 4.72612 13.7413 5.34148 13.1259L11.3184 7.14907C12.0015 6.48458 12.745 5.98446 13.5487 5.64869C14.3524 5.31295 15.1964 5.14508 16.0808 5.14508C16.9653 5.14508 17.8064 5.31295 18.6043 5.64869C19.4021 5.98446 20.1332 6.48458 20.7977 7.14907L21.8436 8.19497L22.8895 7.14907C23.5728 6.48458 24.3133 5.98446 25.1111 5.64869C25.909 5.31295 26.7501 5.14508 27.6345 5.14508C28.5189 5.14508 29.363 5.31295 30.1667 5.64869C30.9704 5.98446 31.7045 6.48458 32.369 7.14907L39.6233 14.4034C40.2878 15.0679 40.7967 15.8242 41.15 16.6723C41.5033 17.5205 41.6799 18.3868 41.6799 19.2712C41.6799 20.1556 41.5033 20.9967 41.15 21.7946C40.7967 22.5925 40.2878 23.3236 39.6233 23.9881L25.0269 38.5565C24.6244 38.9589 24.1711 39.2642 23.6669 39.4725C23.1627 39.6807 22.6357 39.7849 22.0859 39.7849Z" fill="#1A293D"/>
</svg>
