<svg width="45" height="45" viewBox="0 0 45 45" fill="none" xmlns="http://www.w3.org/2000/svg">
<path d="M38.3634 16.1125C39.2315 16.1125 39.9983 16.4453 40.6639 17.111C41.3296 17.7766 41.6624 18.5435 41.6624 19.4116V22.3596C41.6624 22.5511 41.6379 22.7563 41.5887 22.9753C41.5396 23.1942 41.4846 23.3984 41.4238 23.5879L36.1937 35.9298C35.9321 36.5133 35.4937 37.0063 34.8784 37.4087C34.263 37.8112 33.6209 38.0124 32.9522 38.0124H13.7611V16.1125L24.3776 5.58723C24.7403 5.22457 25.1603 5.00814 25.6376 4.93794C26.1149 4.86773 26.5723 4.94963 27.0098 5.18363C27.4473 5.41759 27.7678 5.74982 27.9714 6.18031C28.175 6.61082 28.2183 7.05654 28.1012 7.51744L26.1359 16.1125H38.3634ZM16.4985 17.2777V35.275H32.9586C33.0873 35.275 33.2189 35.2399 33.3534 35.1697C33.488 35.0995 33.5904 34.9825 33.6606 34.8187L38.925 22.5V19.4116C38.925 19.2478 38.8723 19.1132 38.767 19.0079C38.6617 18.9026 38.5272 18.85 38.3634 18.85H22.6755L24.9637 8.84754L16.4985 17.2777ZM8.46159 38.0124C7.55435 38.0124 6.77771 37.6894 6.13166 37.0433C5.48558 36.3972 5.16254 35.6206 5.16254 34.7134V19.4116C5.16254 18.5043 5.48558 17.7277 6.13166 17.0816C6.77771 16.4355 7.55435 16.1125 8.46159 16.1125H13.7611V18.85H8.46159C8.2978 18.85 8.16325 18.9026 8.05795 19.0079C7.95264 19.1132 7.89999 19.2478 7.89999 19.4116V34.7134C7.89999 34.8772 7.95264 35.0117 8.05795 35.117C8.16325 35.2223 8.2978 35.275 8.46159 35.275H13.7611V38.0124H8.46159Z" fill="#1A293D"/>
</svg>
