<svg width="45" height="45" viewBox="0 0 45 45" fill="none" xmlns="http://www.w3.org/2000/svg">
<path d="M32.6287 17.9937L39.3953 11.199C39.6667 10.9276 39.989 10.7919 40.3622 10.7919C40.7354 10.7919 41.0635 10.9276 41.3466 11.199C41.6297 11.4704 41.7683 11.7957 41.7625 12.1747C41.7566 12.5537 41.618 12.8789 41.3466 13.1503L33.7834 20.696C33.4535 21.0259 33.0686 21.1909 32.6287 21.1909C32.1889 21.1909 31.804 21.0259 31.4741 20.696L27.789 17.0109C27.5176 16.7395 27.379 16.4201 27.3731 16.0528C27.3673 15.6855 27.5059 15.3603 27.789 15.0772C28.0647 14.8057 28.3863 14.67 28.7538 14.67C29.1214 14.67 29.4408 14.8057 29.7122 15.0772L32.6287 17.9937ZM17.025 21.9384C15.2685 21.9384 13.7648 21.313 12.5139 20.0621C11.263 18.8112 10.6375 17.3075 10.6375 15.551C10.6375 13.7944 11.263 12.2907 12.5139 11.0398C13.7648 9.78896 15.2685 9.16351 17.025 9.16351C18.7815 9.16351 20.2852 9.78896 21.5361 11.0398C22.787 12.2907 23.4124 13.7944 23.4124 15.551C23.4124 17.3075 22.787 18.8112 21.5361 20.0621C20.2852 21.313 18.7815 21.9384 17.025 21.9384ZM3.33759 33.0639V31.7794C3.33759 30.8856 3.58031 30.0579 4.06576 29.2964C4.55127 28.5348 5.19997 27.9493 6.01185 27.5398C7.8158 26.6554 9.63554 25.9921 11.4711 25.5499C13.3066 25.1077 15.1579 24.8866 17.025 24.8866C18.8921 24.8866 20.7434 25.1077 22.5789 25.5499C24.4144 25.9921 26.2342 26.6554 28.0381 27.5398C28.85 27.9493 29.4987 28.5348 29.9842 29.2964C30.4697 30.0579 30.7124 30.8856 30.7124 31.7794V33.0639C30.7124 33.8336 30.4428 34.4882 29.9035 35.0275C29.3642 35.5668 28.7097 35.8364 27.9399 35.8364H6.11008C5.34033 35.8364 4.6858 35.5668 4.14652 35.0275C3.60723 34.4882 3.33759 33.8336 3.33759 33.0639ZM6.07499 33.099H27.975V31.7794C27.975 31.4097 27.8679 31.0675 27.6538 30.7528C27.4398 30.4381 27.1491 30.1813 26.7817 29.9824C25.2094 29.208 23.6062 28.6213 21.972 28.2224C20.3379 27.8234 18.6888 27.624 17.025 27.624C15.3611 27.624 13.7121 27.8234 12.078 28.2224C10.4438 28.6213 8.84057 29.208 7.26827 29.9824C6.90093 30.1813 6.61022 30.4381 6.39615 30.7528C6.18205 31.0675 6.07499 31.4097 6.07499 31.7794V33.099ZM17.025 19.201C18.0287 19.201 18.888 18.8436 19.6028 18.1288C20.3176 17.414 20.675 16.5547 20.675 15.551C20.675 14.5472 20.3176 13.6879 19.6028 12.9732C18.888 12.2584 18.0287 11.901 17.025 11.901C16.0212 11.901 15.162 12.2584 14.4472 12.9732C13.7324 13.6879 13.375 14.5472 13.375 15.551C13.375 16.5547 13.7324 17.414 14.4472 18.1288C15.162 18.8436 16.0212 19.201 17.025 19.201Z" fill="#1A293D"/>
</svg>
