<svg width="28" height="23" viewBox="0 0 28 23" fill="none" xmlns="http://www.w3.org/2000/svg">
<path d="M2.66399 23C1.91958 23 1.28948 22.7317 0.773686 22.195C0.257895 21.6583 0 21.0027 0 20.2282V2.77182C0 1.99728 0.257895 1.34167 0.773686 0.805003C1.28948 0.268334 1.91958 0 2.66399 0H25.336C26.0804 0 26.7105 0.268334 27.2263 0.805003C27.7421 1.34167 28 1.99728 28 2.77182V20.2282C28 21.0027 27.7421 21.6583 27.2263 22.195C26.7105 22.7317 26.0804 23 25.336 23H2.66399ZM25.7895 4.51146L14.717 11.8862C14.6036 11.9531 14.4865 12.0057 14.3656 12.044C14.2447 12.0823 14.1228 12.1015 14 12.1015C13.8772 12.1015 13.7553 12.0823 13.6344 12.044C13.5135 12.0057 13.3964 11.9531 13.283 11.8862L2.2105 4.51146V20.2282C2.2105 20.3658 2.25301 20.4788 2.33804 20.5673C2.42307 20.6558 2.53172 20.7 2.66399 20.7H25.336C25.4683 20.7 25.5769 20.6558 25.662 20.5673C25.747 20.4788 25.7895 20.3658 25.7895 20.2282V4.51146ZM14 9.96666L25.5628 2.29997H2.43722L14 9.96666ZM2.2105 4.86528V3.11233V3.15803V3.10938V4.86528Z" fill="#C3D2DE"/>
</svg>
