<svg width="20" height="20" viewBox="0 0 20 20" fill="none" xmlns="http://www.w3.org/2000/svg">
<path d="M10.29 16.1779C11.9204 14.7185 13.168 13.3186 14.0328 11.9784C14.8977 10.6381 15.3301 9.46419 15.3301 8.45671C15.3301 6.93749 14.8475 5.68856 13.8822 4.70992C12.9169 3.73128 11.7195 3.24196 10.29 3.24196C8.86056 3.24196 7.66317 3.73128 6.6979 4.70992C5.73262 5.68856 5.24998 6.93749 5.24998 8.45671C5.24998 9.46419 5.6824 10.6381 6.54725 11.9784C7.41211 13.3186 8.65971 14.7185 10.29 16.1779ZM10.29 17.3669C10.1277 17.3669 9.96526 17.3389 9.80287 17.2828C9.64049 17.2267 9.49358 17.1399 9.36217 17.0224C8.61432 16.3333 7.91454 15.6236 7.26283 14.8934C6.61112 14.1632 6.04462 13.4332 5.56331 12.7035C5.08201 11.9738 4.70113 11.2505 4.42069 10.5336C4.14023 9.81676 4 9.12444 4 8.45671C4 6.53365 4.62206 4.97677 5.86619 3.78606C7.1103 2.59535 8.58492 2 10.29 2C11.9952 2 13.4698 2.59535 14.7139 3.78606C15.958 4.97677 16.5801 6.53365 16.5801 8.45671C16.5801 9.12444 16.4399 9.81542 16.1594 10.5296C15.879 11.2439 15.4994 11.9671 15.0208 12.6995C14.5421 13.4319 13.977 14.1618 13.3253 14.8894C12.6736 15.617 11.9738 16.3253 11.2259 17.0144C11.0964 17.1319 10.9493 17.2201 10.7845 17.2788C10.6197 17.3376 10.4548 17.3669 10.29 17.3669ZM10.2915 9.80446C10.7061 9.80446 11.0606 9.65682 11.3549 9.36154C11.6493 9.06627 11.7964 8.7113 11.7964 8.29665C11.7964 7.88199 11.6488 7.5275 11.3535 7.23317C11.0582 6.93883 10.7033 6.79167 10.2886 6.79167C9.87397 6.79167 9.51948 6.93931 9.22515 7.23458C8.93081 7.52986 8.78365 7.88483 8.78365 8.29948C8.78365 8.71413 8.93128 9.06863 9.22656 9.36296C9.52184 9.65729 9.8768 9.80446 10.2915 9.80446Z" fill="#C3D2DE"/>
</svg>
