<svg width="28" height="34" viewBox="0 0 28 34" fill="none" xmlns="http://www.w3.org/2000/svg">
<path d="M14 31.3691C17.6287 28.1402 20.4055 25.043 22.3305 22.0775C24.2554 19.1121 25.2179 16.5148 25.2179 14.2857C25.2179 10.9244 24.1436 8.16109 21.9952 5.99581C19.8467 3.83053 17.1817 2.74789 14 2.74789C10.8183 2.74789 8.15327 3.83053 6.00482 5.99581C3.85636 8.16109 2.78213 10.9244 2.78213 14.2857C2.78213 16.5148 3.74459 19.1121 5.66952 22.0775C7.59447 25.043 10.3713 28.1402 14 31.3691ZM14 34C13.6386 34 13.2771 33.938 12.9157 33.8139C12.5543 33.6898 12.2273 33.4977 11.9348 33.2377C10.2703 31.713 8.71275 30.1429 7.26222 28.5272C5.81169 26.9116 4.55079 25.2965 3.47953 23.682C2.40827 22.0675 1.56054 20.4672 0.936341 18.8811C0.312113 17.2949 0 15.7631 0 14.2857C0 10.0309 1.38455 6.58623 4.15365 3.95174C6.92272 1.31725 10.2048 0 14 0C17.7952 0 21.0773 1.31725 23.8463 3.95174C26.6154 6.58623 28 10.0309 28 14.2857C28 15.7631 27.6879 17.292 27.0637 18.8722C26.4395 20.4524 25.5947 22.0527 24.5294 23.6731C23.4641 25.2935 22.2062 26.9086 20.7556 28.5184C19.3051 30.1281 17.7476 31.6953 16.083 33.2199C15.7948 33.48 15.4673 33.675 15.1005 33.805C14.7336 33.935 14.3668 34 14 34ZM14.0032 17.2677C14.9261 17.2677 15.7151 16.941 16.3702 16.2877C17.0253 15.6344 17.3528 14.849 17.3528 13.9316C17.3528 13.0142 17.0242 12.2298 16.367 11.5786C15.7098 10.9274 14.9198 10.6018 13.9968 10.6018C13.0739 10.6018 12.2849 10.9284 11.6298 11.5817C10.9747 12.2351 10.6472 13.0204 10.6472 13.9379C10.6472 14.8553 10.9758 15.6396 11.633 16.2909C12.2902 16.9421 13.0802 17.2677 14.0032 17.2677Z" fill="#C3D2DE"/>
</svg>
