<svg width="25" height="25" viewBox="0 0 25 25" fill="none" xmlns="http://www.w3.org/2000/svg">
<path d="M12.4167 22.8333C10.9757 22.8333 9.62153 22.5599 8.35417 22.013C7.08681 21.4661 5.98438 20.724 5.04688 19.7865C4.10938 18.849 3.36719 17.7465 2.82031 16.4792C2.27344 15.2118 2 13.8576 2 12.4167C2 10.9757 2.27344 9.62153 2.82031 8.35417C3.36719 7.08681 4.10938 5.98438 5.04688 5.04688C5.98438 4.10938 7.08681 3.36719 8.35417 2.82031C9.62153 2.27344 10.9757 2 12.4167 2C13.8576 2 15.2118 2.27344 16.4792 2.82031C17.7465 3.36719 18.849 4.10938 19.7865 5.04688C20.724 5.98438 21.4661 7.08681 22.013 8.35417C22.5599 9.62153 22.8333 10.9757 22.8333 12.4167C22.8333 13.8576 22.5599 15.2118 22.013 16.4792C21.4661 17.7465 20.724 18.849 19.7865 19.7865C18.849 20.724 17.7465 21.4661 16.4792 22.013C15.2118 22.5599 13.8576 22.8333 12.4167 22.8333ZM11.375 20.6979V18.6667C10.8021 18.6667 10.3116 18.4627 9.90365 18.0547C9.49566 17.6467 9.29167 17.1563 9.29167 16.5833V15.5417L4.29167 10.5417C4.23958 10.8542 4.19184 11.1667 4.14844 11.4792C4.10503 11.7917 4.08333 12.1042 4.08333 12.4167C4.08333 14.5174 4.77344 16.3576 6.15365 17.9375C7.53385 19.5174 9.27431 20.4375 11.375 20.6979ZM18.5625 18.0417C18.9097 17.6597 19.2222 17.2474 19.5 16.8047C19.7778 16.362 20.0078 15.9019 20.1901 15.4245C20.3724 14.947 20.5113 14.4566 20.6068 13.9531C20.7023 13.4497 20.75 12.9375 20.75 12.4167C20.75 10.7153 20.2769 9.16146 19.3307 7.75521C18.3846 6.34896 17.1215 5.33333 15.5417 4.70833V5.125C15.5417 5.69792 15.3377 6.18837 14.9297 6.59635C14.5217 7.00434 14.0313 7.20833 13.4583 7.20833H11.375V9.29167C11.375 9.58681 11.2752 9.8342 11.0755 10.0339C10.8759 10.2335 10.6285 10.3333 10.3333 10.3333H8.25V12.4167H14.5C14.7951 12.4167 15.0425 12.5165 15.2422 12.7161C15.4418 12.9158 15.5417 13.1632 15.5417 13.4583V16.5833H16.5833C17.0347 16.5833 17.4427 16.7179 17.8073 16.987C18.1719 17.2561 18.4236 17.6076 18.5625 18.0417Z" fill="#354A66"/>
</svg>
