<svg width="28" height="28" viewBox="0 0 28 28" fill="none" xmlns="http://www.w3.org/2000/svg">
<path d="M14.5702 12.2768V1.4887C14.5702 1.06692 14.7132 0.713358 14.9994 0.428031C15.2855 0.142678 15.6401 0 16.0631 0H26.5134C26.9364 0 27.2899 0.142678 27.5739 0.428031C27.858 0.713358 28 1.06692 28 1.4887V8.5203C28 8.94209 27.8573 9.29566 27.572 9.58101C27.2866 9.86634 26.9331 10.009 26.5113 10.009H18.6244L15.8435 12.7899C15.6006 13.0328 15.3277 13.0933 15.0247 12.9714C14.7217 12.8496 14.5702 12.618 14.5702 12.2768ZM17.0407 7.53845H25.5294V2.47056H17.0407V7.53845ZM26.2547 28C23.1507 28 20.0324 27.2784 16.8998 25.8351C13.7672 24.3918 10.8891 22.3556 8.26542 19.7267C5.64173 17.0977 3.60824 14.2196 2.16494 11.0923C0.721647 7.96501 0 4.84933 0 1.74527C0 1.24662 0.164706 0.831083 0.494119 0.49865C0.823532 0.166218 1.2353 0 1.72942 0H7.10131C7.51731 0 7.8842 0.135677 8.202 0.407031C8.51981 0.678385 8.72198 1.0136 8.80854 1.41269L9.75243 6.2588C9.8179 6.70859 9.80417 7.09502 9.71125 7.41809C9.61836 7.74116 9.45154 8.0125 9.21079 8.23211L5.40673 11.9348C6.01911 13.0561 6.71859 14.1167 7.50517 15.1165C8.29176 16.1164 9.14326 17.0714 10.0597 17.9815C10.9635 18.8853 11.9243 19.7246 12.9421 20.4996C13.9599 21.2746 15.059 21.9957 16.2394 22.6629L19.9358 18.9349C20.1934 18.6667 20.5054 18.4788 20.8718 18.3711C21.2381 18.2634 21.6187 18.237 22.0136 18.2919L26.5873 19.2231C27.0033 19.3329 27.3428 19.5451 27.6056 19.8598C27.8685 20.1744 28 20.5313 28 20.9304V26.2706C28 26.7647 27.8338 27.1765 27.5013 27.5059C27.1689 27.8353 26.7534 28 26.2547 28ZM4.23798 9.59732L7.17737 6.78463C7.23016 6.74238 7.26447 6.68431 7.28031 6.61041C7.29615 6.53648 7.29351 6.46785 7.2724 6.40453L6.55655 2.72396C6.53544 2.63949 6.49849 2.57615 6.4457 2.53393C6.39291 2.49168 6.32428 2.47056 6.23982 2.47056H2.71761C2.65428 2.47056 2.6015 2.49168 2.55925 2.53393C2.517 2.57615 2.49588 2.62893 2.49588 2.69229C2.58034 3.81778 2.76458 4.96123 3.04859 6.12263C3.33263 7.28403 3.72909 8.44226 4.23798 9.59732ZM18.5674 23.8317C19.6591 24.3406 20.7978 24.7297 21.9835 24.9989C23.1692 25.2681 24.2773 25.4281 25.3077 25.4788C25.3711 25.4788 25.4239 25.4576 25.4661 25.4154C25.5083 25.3732 25.5294 25.3204 25.5294 25.257V21.7919C25.5294 21.7074 25.5083 21.6388 25.4661 21.586C25.4239 21.5332 25.3605 21.4962 25.276 21.4751L21.8172 20.7719C21.7539 20.7508 21.6985 20.7482 21.6509 20.764C21.6034 20.7799 21.5533 20.8142 21.5005 20.867L18.5674 23.8317Z" fill="#C3D2DE"/>
</svg>
