<svg width="45" height="45" viewBox="0 0 45 45" fill="none" xmlns="http://www.w3.org/2000/svg">
<path d="M7.90001 35.545V15.47V34.9834V34.7992V35.545ZM8.4616 38.2825C7.53974 38.2825 6.75943 37.9631 6.12068 37.3243C5.48193 36.6856 5.16255 35.9053 5.16255 34.9834V16.0316C5.16255 15.1097 5.48193 14.3294 6.12068 13.6907C6.75943 13.0519 7.53974 12.7326 8.4616 12.7326H16.1126V9.64416C16.1126 8.72232 16.4319 7.94203 17.0707 7.30328C17.7094 6.66453 18.4897 6.34515 19.4116 6.34515H25.5884C26.5103 6.34515 27.2906 6.66453 27.9293 7.30328C28.5681 7.94203 28.8875 8.72232 28.8875 9.64416V12.7326H36.5384C37.4603 12.7326 38.2406 13.0519 38.8793 13.6907C39.5181 14.3294 39.8375 15.1097 39.8375 16.0316V23.7633C39.4187 23.4732 38.984 23.2216 38.5336 23.0087C38.0833 22.7958 37.6054 22.6063 37.1 22.4402V16.0316C37.1 15.8678 37.0474 15.7333 36.9421 15.628C36.8368 15.5227 36.7022 15.47 36.5384 15.47H8.4616C8.29781 15.47 8.16326 15.5227 8.05796 15.628C7.95266 15.7333 7.90001 15.8678 7.90001 16.0316V34.9834C7.90001 35.1472 7.95266 35.2818 8.05796 35.3871C8.16326 35.4924 8.29781 35.545 8.4616 35.545H21.7244C21.804 36.0317 21.9087 36.5002 22.0386 36.9506C22.1684 37.401 22.3293 37.8449 22.5211 38.2825H8.4616ZM18.85 12.7326H26.15V9.64416C26.15 9.48037 26.0974 9.34582 25.9921 9.24052C25.8868 9.13521 25.7522 9.08256 25.5884 9.08256H19.4116C19.2478 9.08256 19.1133 9.13521 19.008 9.24052C18.9027 9.34582 18.85 9.48037 18.85 9.64416V12.7326ZM33.45 41.9325C31.1711 41.9325 29.2327 41.1335 27.6346 39.5354C26.0366 37.9374 25.2376 35.9989 25.2376 33.72C25.2376 31.4411 26.0366 29.5027 27.6346 27.9046C29.2327 26.3066 31.1711 25.5076 33.45 25.5076C35.7289 25.5076 37.6674 26.3066 39.2654 27.9046C40.8634 29.5027 41.6625 31.4411 41.6625 33.72C41.6625 35.9989 40.8634 37.9374 39.2654 39.5354C37.6674 41.1335 35.7289 41.9325 33.45 41.9325ZM34.2572 33.3901V29.1575C34.2572 28.9376 34.1777 28.7481 34.0185 28.589C33.8595 28.4299 33.67 28.3503 33.45 28.3503C33.2301 28.3503 33.0406 28.4299 32.8815 28.589C32.7224 28.7481 32.6428 28.9376 32.6428 29.1575V33.362C32.6428 33.582 32.6826 33.7914 32.7621 33.9903C32.8417 34.1891 32.9669 34.374 33.1377 34.5448L35.8927 37.2998C36.0518 37.4589 36.2384 37.5414 36.4525 37.5472C36.6666 37.5531 36.859 37.4706 37.0298 37.2998C37.2006 37.129 37.286 36.9395 37.286 36.7313C37.286 36.523 37.2006 36.3335 37.0298 36.1627L34.2572 33.3901Z" fill="#1A293D"/>
</svg>
