<svg width="60" height="60" viewBox="0 0 60 60" fill="none" xmlns="http://www.w3.org/2000/svg">
<path d="M29.4711 49.9279C29.7179 49.9279 29.9687 49.8702 30.2236 49.7548C30.4784 49.6394 30.6795 49.508 30.8269 49.3606L50.8221 29.3654C51.3862 28.8013 51.8109 28.1987 52.0961 27.5577C52.3814 26.9167 52.5241 26.2436 52.5241 25.5384C52.5241 24.8077 52.3814 24.1042 52.0961 23.4279C51.8109 22.7516 51.3862 22.1442 50.8221 21.6058L40.8221 11.6058C40.2837 11.0417 39.7003 10.629 39.0721 10.3678C38.4439 10.1066 37.7644 9.97595 37.0337 9.97595C36.3285 9.97595 35.6514 10.1066 35.0024 10.3678C34.3533 10.629 33.7548 11.0417 33.2067 11.6058L31.774 13.0385L36.399 17.702C36.9599 18.2373 37.3741 18.8478 37.6417 19.5337C37.9094 20.2196 38.0432 20.9312 38.0432 21.6683C38.0432 23.1939 37.5336 24.4664 36.5144 25.4856C35.4952 26.5048 34.2227 27.0144 32.6971 27.0144C31.9599 27.0144 31.246 26.8926 30.5553 26.649C29.8646 26.4054 29.2516 26.016 28.7164 25.4808L24.5337 21.3366C24.3895 21.1923 24.2052 21.1202 23.9808 21.1202C23.7564 21.1202 23.5721 21.1923 23.4279 21.3366L13.1154 31.649C12.9263 31.8381 12.7845 32.0497 12.6899 32.2836C12.5953 32.5176 12.5481 32.758 12.5481 33.0048C12.5481 33.4664 12.7051 33.8606 13.0192 34.1876C13.3333 34.5145 13.7212 34.6779 14.1827 34.6779C14.4295 34.6779 14.6803 34.6203 14.9351 34.5049C15.1899 34.3895 15.3911 34.2581 15.5385 34.1106L22.4327 27.2164C22.7789 26.8702 23.2076 26.6867 23.7188 26.6659C24.23 26.6451 24.6795 26.8286 25.0673 27.2164C25.4295 27.5786 25.6106 28.0176 25.6106 28.5336C25.6106 29.0496 25.4295 29.4887 25.0673 29.8509L18.2116 36.7451C18.0224 36.9343 17.8806 37.1458 17.7861 37.3798C17.6915 37.6138 17.6442 37.8542 17.6442 38.1009C17.6442 38.5465 17.8052 38.9303 18.1274 39.2524C18.4495 39.5746 18.8333 39.7356 19.2789 39.7356C19.5257 39.7356 19.7765 39.6779 20.0313 39.5625C20.2861 39.4471 20.4872 39.3157 20.6347 39.1683L27.8174 32.024C28.1635 31.6779 28.5922 31.4944 29.1034 31.4736C29.6146 31.4527 30.0641 31.6362 30.4519 32.024C30.8141 32.3862 30.9952 32.8253 30.9952 33.3413C30.9952 33.8573 30.8141 34.2964 30.4519 34.6586L23.3077 41.8413C23.1346 41.9887 22.9968 42.1899 22.8942 42.4447C22.7916 42.6995 22.7404 42.9503 22.7404 43.1971C22.7404 43.6426 22.9014 44.0264 23.2236 44.3486C23.5456 44.6707 23.9294 44.8318 24.375 44.8318C24.6218 44.8318 24.8622 44.7845 25.0962 44.6899C25.3301 44.5954 25.5417 44.4535 25.7308 44.2645L32.9135 37.1201C33.2597 36.774 33.6883 36.5905 34.1996 36.5697C34.7108 36.5489 35.1603 36.7323 35.5481 37.1201C35.9102 37.4823 36.0913 37.9214 36.0913 38.4374C36.0913 38.9534 35.9102 39.3925 35.5481 39.7547L28.3654 46.9374C28.1762 47.1265 28.0344 47.3461 27.9399 47.5961C27.8453 47.8461 27.7981 48.0865 27.7981 48.3173C27.7981 48.7788 27.9695 49.1627 28.3124 49.4688C28.6554 49.7748 29.0416 49.9279 29.4711 49.9279ZM29.4327 53.6778C28.0192 53.6778 26.7868 53.1874 25.7356 52.2066C24.6843 51.2259 24.1346 50.0047 24.0866 48.5432C22.6699 48.4471 21.4864 47.9439 20.5361 47.0336C19.5858 46.1233 19.0706 44.9278 18.9904 43.4471C17.5097 43.3509 16.3126 42.8333 15.3991 41.8942C14.4857 40.9551 13.9969 39.774 13.9327 38.3509C12.4456 38.2548 11.218 37.7155 10.2501 36.7332C9.28214 35.7508 8.79818 34.508 8.79818 33.0048C8.79818 32.2677 8.93839 31.5457 9.2188 30.839C9.49926 30.1323 9.90711 29.5113 10.4424 28.976L20.7789 18.6395C21.641 17.7773 22.7019 17.3463 23.9616 17.3463C25.2211 17.3463 26.282 17.7773 27.1442 18.6395L31.3028 22.7981C31.4503 22.9712 31.6434 23.1091 31.8822 23.2116C32.121 23.3142 32.3798 23.3654 32.6586 23.3654C33.1137 23.3654 33.5064 23.2148 33.8366 22.9135C34.1667 22.6122 34.3317 22.218 34.3317 21.7308C34.3317 21.4519 34.2805 21.1931 34.1779 20.9543C34.0753 20.7156 33.9375 20.5225 33.7644 20.375L24.9952 11.6058C24.4567 11.0417 23.8694 10.629 23.2332 10.3678C22.5969 10.1066 21.9134 9.97595 21.1827 9.97595C20.4776 9.97595 19.8085 10.1066 19.1754 10.3678C18.5424 10.629 17.9439 11.0417 17.3797 11.6058L9.1683 19.8558C8.71313 20.3109 8.34053 20.8486 8.05049 21.4688C7.76041 22.089 7.58972 22.7212 7.53843 23.3654C7.48718 23.8975 7.51122 24.4239 7.61055 24.9448C7.70993 25.4656 7.88461 25.9552 8.13461 26.4135L5.37505 29.1731C4.81097 28.3589 4.3863 27.4471 4.10105 26.4375C3.81576 25.4279 3.69874 24.4038 3.74999 23.3654C3.80128 22.2148 4.0609 21.1034 4.52886 20.0313C4.99678 18.9592 5.65222 18.0017 6.49518 17.1587L14.6827 8.97126C15.6186 8.06101 16.637 7.37591 17.7379 6.91595C18.8389 6.45603 19.9951 6.22607 21.2066 6.22607C22.4182 6.22607 23.5704 6.45603 24.6634 6.91595C25.7563 7.37591 26.7579 8.06101 27.6681 8.97126L29.1009 10.404L30.5336 8.97126C31.4695 8.06101 32.4839 7.37591 33.5769 6.91595C34.6698 6.45603 35.8221 6.22607 37.0336 6.22607C38.2451 6.22607 39.4013 6.45603 40.5023 6.91595C41.6033 7.37591 42.6089 8.06101 43.5191 8.97126L53.4566 18.9087C54.3668 19.8189 55.0639 20.855 55.5479 22.0168C56.0319 23.1787 56.2739 24.3654 56.2739 25.577C56.2739 26.7885 56.0319 27.9407 55.5479 29.0336C55.0639 30.1266 54.3668 31.1282 53.4566 32.0384L33.4615 51.9951C32.9102 52.5464 32.2892 52.9647 31.5985 53.25C30.9078 53.5352 30.1859 53.6778 29.4327 53.6778Z" fill="#0A2646"/>
</svg>
