<svg width="60" height="60" viewBox="0 0 60 60" fill="none" xmlns="http://www.w3.org/2000/svg">
<path d="M51.7306 21.2501C52.9198 21.2501 53.9702 21.706 54.8821 22.6179C55.7939 23.5297 56.2499 24.5802 56.2499 25.7693V29.8077C56.2499 30.0701 56.2162 30.3512 56.1489 30.6512C56.0816 30.951 56.0063 31.2308 55.9229 31.4904L48.7584 48.397C48.4001 49.1964 47.7995 49.8717 46.9566 50.423C46.1137 50.9743 45.2341 51.25 44.318 51.25H18.0288V21.2501L32.5721 6.83191C33.0689 6.33512 33.6442 6.03864 34.298 5.94247C34.9518 5.8463 35.5784 5.95849 36.1778 6.27903C36.7771 6.59953 37.2162 7.05464 37.495 7.64435C37.7739 8.2341 37.8332 8.84466 37.6729 9.47603L34.9806 21.2501H51.7306ZM21.7788 22.8462V47.5H44.3268C44.5031 47.5 44.6834 47.452 44.8677 47.3558C45.052 47.2596 45.1923 47.0993 45.2884 46.875L52.4999 30V25.7693C52.4999 25.545 52.4278 25.3607 52.2836 25.2164C52.1393 25.0722 51.955 25 51.7306 25H30.2403L33.3749 11.2981L21.7788 22.8462ZM10.7693 51.25C9.52646 51.25 8.46256 50.8074 7.57756 49.9224C6.69252 49.0374 6.25 47.9735 6.25 46.7307V25.7693C6.25 24.5266 6.69252 23.4627 7.57756 22.5777C8.46256 21.6926 9.52646 21.2501 10.7693 21.2501H18.0288V25H10.7693C10.5449 25 10.3606 25.0722 10.2163 25.2164C10.0721 25.3607 9.99994 25.545 9.99994 25.7693V46.7307C9.99994 46.9551 10.0721 47.1394 10.2163 47.2837C10.3606 47.4279 10.5449 47.5 10.7693 47.5H18.0288V51.25H10.7693Z" fill="#0A2646"/>
</svg>
