<svg width="60" height="60" viewBox="0 0 60 60" fill="none" xmlns="http://www.w3.org/2000/svg">
<path d="M43.8751 23.8271L53.1444 14.5193C53.5162 14.1475 53.9577 13.9616 54.4689 13.9616C54.9801 13.9616 55.4296 14.1475 55.8174 14.5193C56.2052 14.8911 56.3951 15.3366 56.3871 15.8558C56.3791 16.3751 56.1892 16.8206 55.8174 17.1923L45.4568 27.5289C45.0049 27.9808 44.4777 28.2068 43.8751 28.2068C43.2726 28.2068 42.7453 27.9808 42.2934 27.5289L37.2454 22.4808C36.8736 22.109 36.6837 21.6715 36.6756 21.1683C36.6676 20.6652 36.8575 20.2197 37.2454 19.8318C37.623 19.46 38.0635 19.2741 38.567 19.2741C39.0705 19.2741 39.5081 19.46 39.8799 19.8318L43.8751 23.8271ZM22.5001 29.2308C20.0939 29.2308 18.034 28.374 16.3205 26.6605C14.607 24.947 13.7502 22.8871 13.7502 20.4809C13.7502 18.0746 14.607 16.0148 16.3205 14.3013C18.034 12.5877 20.0939 11.731 22.5001 11.731C24.9063 11.731 26.9662 12.5877 28.6797 14.3013C30.3933 16.0148 31.2501 18.0746 31.2501 20.4809C31.2501 22.8871 30.3933 24.947 28.6797 26.6605C26.9662 28.374 24.9063 29.2308 22.5001 29.2308ZM3.75024 44.4712V42.7116C3.75024 41.4873 4.08274 40.3535 4.74774 39.3102C5.41283 38.267 6.30145 37.4649 7.41362 36.904C9.88479 35.6924 12.3776 34.7838 14.892 34.178C17.4064 33.5723 19.9425 33.2694 22.5001 33.2694C25.0578 33.2694 27.5938 33.5723 30.1082 34.178C32.6227 34.7838 35.1154 35.6924 37.5866 36.904C38.6988 37.4649 39.5874 38.267 40.2524 39.3102C40.9175 40.3535 41.2501 41.4873 41.2501 42.7116V44.4712C41.2501 45.5257 40.8807 46.4223 40.1419 47.161C39.4031 47.8998 38.5065 48.2692 37.4521 48.2692H7.54818C6.49372 48.2692 5.59712 47.8998 4.85837 47.161C4.11962 46.4223 3.75024 45.5257 3.75024 44.4712ZM7.50012 44.5193H37.5001V42.7116C37.5001 42.2052 37.3535 41.7364 37.0602 41.3053C36.7669 40.8743 36.3687 40.5225 35.8655 40.25C33.7117 39.1891 31.5155 38.3855 29.2769 37.839C27.0383 37.2925 24.7794 37.0193 22.5001 37.0193C20.2209 37.0193 17.962 37.2925 15.7234 37.839C13.4848 38.3855 11.2886 39.1891 9.13474 40.25C8.63154 40.5225 8.23331 40.8743 7.94006 41.3053C7.64677 41.7364 7.50012 42.2052 7.50012 42.7116V44.5193ZM22.5001 25.4809C23.8751 25.4809 25.0522 24.9913 26.0314 24.0121C27.0105 23.033 27.5001 21.8559 27.5001 20.4809C27.5001 19.1059 27.0105 17.9288 26.0314 16.9496C25.0522 15.9705 23.8751 15.4809 22.5001 15.4809C21.1251 15.4809 19.948 15.9705 18.9689 16.9496C17.9897 17.9288 17.5001 19.1059 17.5001 20.4809C17.5001 21.8559 17.9897 23.033 18.9689 24.0121C19.948 24.9913 21.1251 25.4809 22.5001 25.4809Z" fill="#0A2646"/>
</svg>
