<svg width="37" height="37" viewBox="0 0 37 37" fill="none" xmlns="http://www.w3.org/2000/svg">
<path d="M6.64112 30.0624C5.86237 30.0624 5.20321 29.7926 4.66362 29.253C4.12404 28.7135 3.85425 28.0543 3.85425 27.2756V9.72437C3.85425 8.94563 4.12404 8.28646 4.66362 7.74687C5.20321 7.20729 5.86237 6.9375 6.64112 6.9375H30.359C31.1377 6.9375 31.7969 7.20729 32.3365 7.74687C32.8761 8.28646 33.1458 8.94563 33.1458 9.72437V27.2756C33.1458 28.0543 32.8761 28.7135 32.3365 29.253C31.7969 29.7926 31.1377 30.0624 30.359 30.0624H6.64112ZM30.8334 11.4735L19.2501 18.8883C19.1315 18.9555 19.009 19.0084 18.8825 19.0469C18.756 19.0854 18.6285 19.1047 18.5 19.1047C18.3716 19.1047 18.2441 19.0854 18.1176 19.0469C17.9911 19.0084 17.8686 18.9555 17.75 18.8883L6.16671 11.4735V27.2756C6.16671 27.4139 6.21119 27.5276 6.30014 27.6165C6.3891 27.7055 6.50275 27.75 6.64112 27.75H30.359C30.4973 27.75 30.611 27.7055 30.6999 27.6165C30.7889 27.5276 30.8334 27.4139 30.8334 27.2756V11.4735ZM18.5 16.9583L30.5962 9.24996H6.4039L18.5 16.9583ZM6.16671 11.8292V10.0667V10.1127V10.0638V11.8292Z" fill="#9C9C9C"/>
</svg>
