<svg width="49" height="48" viewBox="0 0 49 48" fill="none" xmlns="http://www.w3.org/2000/svg">
<path d="M23.9024 48C20.5959 48 17.4886 47.37 14.5805 46.11C11.6724 44.85 9.14268 43.14 6.99146 40.98C4.84024 38.82 3.1372 36.28 1.88232 33.36C0.627439 30.44 0 27.32 0 24C0 20.68 0.627439 17.56 1.88232 14.64C3.1372 11.72 4.84024 9.18 6.99146 7.02C9.14268 4.86 11.6724 3.15 14.5805 1.89C17.4886 0.63 20.5959 0 23.9024 0C29.7187 0 34.8079 1.83 39.1701 5.49C43.5323 9.15 46.2512 13.74 47.3268 19.26H42.4268C41.6699 16.34 40.3055 13.73 38.3335 11.43C36.3616 9.13 33.9415 7.4 31.0732 6.24V7.2C31.0732 8.52 30.6051 9.65 29.6689 10.59C28.7327 11.53 27.6073 12 26.2927 12H21.5122V16.8C21.5122 17.48 21.2831 18.05 20.825 18.51C20.3669 18.97 19.7992 19.2 19.122 19.2H14.3415V24H19.122V31.2H16.7317L5.25854 19.68C5.13902 20.4 5.02947 21.12 4.92988 21.84C4.83028 22.56 4.78049 23.28 4.78049 24C4.78049 29.24 6.61301 33.74 10.278 37.5C13.9431 41.26 18.4846 43.16 23.9024 43.2V48ZM45.6537 46.8L38.0049 39.12C37.1683 39.6 36.272 40 35.3159 40.32C34.3598 40.64 33.3439 40.8 32.2683 40.8C29.2805 40.8 26.7409 39.75 24.6494 37.65C22.5579 35.55 21.5122 33 21.5122 30C21.5122 27 22.5579 24.45 24.6494 22.35C26.7409 20.25 29.2805 19.2 32.2683 19.2C35.2561 19.2 37.7957 20.25 39.8872 22.35C41.9787 24.45 43.0244 27 43.0244 30C43.0244 31.08 42.865 32.1 42.5463 33.06C42.2276 34.02 41.8293 34.92 41.3512 35.76L49 43.44L45.6537 46.8ZM32.2683 36C33.9415 36 35.3557 35.42 36.511 34.26C37.6663 33.1 38.2439 31.68 38.2439 30C38.2439 28.32 37.6663 26.9 36.511 25.74C35.3557 24.58 33.9415 24 32.2683 24C30.5951 24 29.1809 24.58 28.0256 25.74C26.8703 26.9 26.2927 28.32 26.2927 30C26.2927 31.68 26.8703 33.1 28.0256 34.26C29.1809 35.42 30.5951 36 32.2683 36Z" fill="#0A2646"/>
</svg>
