<svg width="37" height="37" viewBox="0 0 37 37" fill="none" xmlns="http://www.w3.org/2000/svg">
<path d="M18.5001 30.0833C21.5162 27.3834 23.8243 24.7937 25.4243 22.3142C27.0242 19.8347 27.8242 17.663 27.8242 15.7992C27.8242 12.9886 26.9313 10.6781 25.1456 8.8676C23.3598 7.05711 21.1447 6.15187 18.5001 6.15187C15.8556 6.15187 13.6404 7.05711 11.8546 8.8676C10.0689 10.6781 9.17599 12.9886 9.17599 15.7992C9.17599 17.663 9.97597 19.8347 11.5759 22.3142C13.1759 24.7937 15.484 27.3834 18.5001 30.0833ZM18.5001 32.2831C18.1997 32.2831 17.8993 32.2312 17.5988 32.1275C17.2984 32.0237 17.0267 31.8631 16.7835 31.6457C15.4 30.3709 14.1054 29.058 12.8998 27.7071C11.6941 26.3561 10.6461 25.0057 9.75565 23.6558C8.86524 22.3058 8.16062 20.9677 7.6418 19.6415C7.12295 18.3152 6.86353 17.0345 6.86353 15.7992C6.86353 12.2415 8.01434 9.36127 10.316 7.15846C12.6176 4.95565 15.3456 3.85425 18.5001 3.85425C21.6546 3.85425 24.3826 4.95565 26.6842 7.15846C28.9859 9.36127 30.1367 12.2415 30.1367 15.7992C30.1367 17.0345 29.8773 18.3128 29.3584 19.6341C28.8396 20.9554 28.1374 22.2935 27.252 23.6484C26.3665 25.0032 25.3209 26.3537 24.1153 27.6997C22.9096 29.0456 21.615 30.356 20.2315 31.6308C19.9919 31.8483 19.7197 32.0113 19.4148 32.1201C19.1099 32.2287 18.805 32.2831 18.5001 32.2831ZM18.5027 18.2925C19.2698 18.2925 19.9256 18.0194 20.4702 17.4731C21.0147 16.9268 21.2869 16.2702 21.2869 15.503C21.2869 14.7359 21.0138 14.0801 20.4675 13.5356C19.9213 12.9911 19.2646 12.7188 18.4975 12.7188C17.7304 12.7188 17.0746 12.992 16.53 13.5382C15.9855 14.0845 15.7133 14.7412 15.7133 15.5083C15.7133 16.2754 15.9864 16.9312 16.5327 17.4757C17.0789 18.0202 17.7356 18.2925 18.5027 18.2925Z" fill="#9C9C9C"/>
</svg>
