<svg width="30" height="30" viewBox="0 0 30 30" fill="none" xmlns="http://www.w3.org/2000/svg">
<path d="M15 24.3918C17.4455 22.2027 19.3169 20.103 20.6142 18.0925C21.9115 16.0821 22.5601 14.3213 22.5601 12.8101C22.5601 10.5312 21.8361 8.65784 20.3882 7.18988C18.9403 5.72192 17.1442 4.98794 15 4.98794C12.8558 4.98794 11.0597 5.72192 9.61178 7.18988C8.16387 8.65784 7.43991 10.5312 7.43991 12.8101C7.43991 14.3213 8.08855 16.0821 9.38582 18.0925C10.6831 20.103 12.5545 22.2027 15 24.3918ZM15 26.1754C14.7564 26.1754 14.5128 26.1333 14.2693 26.0492C14.0257 25.9651 13.8053 25.8349 13.6082 25.6586C12.4864 24.6249 11.4368 23.5605 10.4592 22.4651C9.48163 21.3698 8.63187 20.2748 7.90991 19.1803C7.18795 18.0857 6.61664 17.0008 6.19597 15.9255C5.77528 14.8501 5.56494 13.8117 5.56494 12.8101C5.56494 9.92548 6.49804 7.59016 8.36422 5.80409C10.2304 4.01803 12.4423 3.125 15 3.125C17.5577 3.125 19.7696 4.01803 21.6358 5.80409C23.502 7.59016 24.4351 9.92548 24.4351 12.8101C24.4351 13.8117 24.2247 14.8481 23.804 15.9195C23.3834 16.9908 22.8141 18.0757 22.0961 19.1743C21.3782 20.2728 20.5304 21.3678 19.5528 22.4591C18.5753 23.5505 17.5256 24.6129 16.4038 25.6466C16.2096 25.8229 15.9889 25.9551 15.7417 26.0432C15.4944 26.1313 15.2472 26.1754 15 26.1754ZM15.0021 14.8317C15.6241 14.8317 16.1558 14.6102 16.5973 14.1673C17.0388 13.7244 17.2596 13.1919 17.2596 12.57C17.2596 11.948 17.0381 11.4163 16.5952 10.9748C16.1523 10.5333 15.6199 10.3125 14.9979 10.3125C14.3759 10.3125 13.8442 10.534 13.4027 10.9769C12.9612 11.4198 12.7404 11.9522 12.7404 12.5742C12.7404 13.1962 12.9619 13.7279 13.4048 14.1694C13.8477 14.6109 14.3801 14.8317 15.0021 14.8317Z" fill="#0A2646"/>
</svg>
