<svg width="189" height="48" viewBox="0 0 189 48" fill="none" xmlns="http://www.w3.org/2000/svg">
<path d="M23.9024 48C20.5959 48 17.4886 47.37 14.5805 46.11C11.6724 44.85 9.14268 43.14 6.99146 40.98C4.84024 38.82 3.1372 36.28 1.88232 33.36C0.627439 30.44 0 27.32 0 24C0 20.68 0.627439 17.56 1.88232 14.64C3.1372 11.72 4.84024 9.18 6.99146 7.02C9.14268 4.86 11.6724 3.15 14.5805 1.89C17.4886 0.63 20.5959 0 23.9024 0C29.7187 0 34.8079 1.83 39.1701 5.49C43.5323 9.15 46.2512 13.74 47.3268 19.26H42.4268C41.6699 16.34 40.3055 13.73 38.3335 11.43C36.3616 9.13 33.9415 7.4 31.0732 6.24V7.2C31.0732 8.52 30.6051 9.65 29.6689 10.59C28.7327 11.53 27.6073 12 26.2927 12H21.5122V16.8C21.5122 17.48 21.2831 18.05 20.825 18.51C20.3669 18.97 19.7992 19.2 19.122 19.2H14.3415V24H19.122V31.2H16.7317L5.25854 19.68C5.13902 20.4 5.02947 21.12 4.92988 21.84C4.83028 22.56 4.78049 23.28 4.78049 24C4.78049 29.24 6.61301 33.74 10.278 37.5C13.9431 41.26 18.4846 43.16 23.9024 43.2V48ZM45.6537 46.8L38.0049 39.12C37.1683 39.6 36.272 40 35.3159 40.32C34.3598 40.64 33.3439 40.8 32.2683 40.8C29.2805 40.8 26.7409 39.75 24.6494 37.65C22.5579 35.55 21.5122 33 21.5122 30C21.5122 27 22.5579 24.45 24.6494 22.35C26.7409 20.25 29.2805 19.2 32.2683 19.2C35.2561 19.2 37.7957 20.25 39.8872 22.35C41.9787 24.45 43.0244 27 43.0244 30C43.0244 31.08 42.865 32.1 42.5463 33.06C42.2276 34.02 41.8293 34.92 41.3512 35.76L49 43.44L45.6537 46.8ZM32.2683 36C33.9415 36 35.3557 35.42 36.511 34.26C37.6663 33.1 38.2439 31.68 38.2439 30C38.2439 28.32 37.6663 26.9 36.511 25.74C35.3557 24.58 33.9415 24 32.2683 24C30.5951 24 29.1809 24.58 28.0256 25.74C26.8703 26.9 26.2927 28.32 26.2927 30C26.2927 31.68 26.8703 33.1 28.0256 34.26C29.1809 35.42 30.5951 36 32.2683 36Z" fill="#0A2646"/>
<path d="M71.2895 0.642475H79.968V23.4432H71.2895V15.0196L66.6646 15.4337V23.4432H58V0.642475H66.6646V8.88043L71.2895 8.49494V0.642475Z" fill="black"/>
<path d="M83.4088 0.642475H99.4425V7.20999H92.0734V9.08031H99.4146V14.677H92.0734V16.8328H99.93V23.4432H83.4088V0.642475Z" fill="black"/>
<path d="M111.91 23.4432H103.245V0.642475H111.91V23.4432Z" fill="black"/>
<path d="M114.39 0.642475H135.452V8.03807H129.253V23.4432H120.589V8.03807H114.39V0.642475Z" fill="black"/>
<path d="M153.45 9.30874C153.45 7.70018 152.698 6.8959 151.193 6.8959C150.543 6.8959 149.819 7.31469 149.02 8.15229C147.822 9.4182 146.986 10.9268 146.513 12.6782C146.364 13.2302 146.29 13.7394 146.29 14.2058C146.29 15.7858 147.07 16.5758 148.63 16.5758C149.252 16.5854 149.963 16.1618 150.761 15.3052C151.922 14.0488 152.744 12.5259 153.227 10.7365C153.376 10.1844 153.45 9.70851 153.45 9.30874ZM149.647 24C146.35 24 143.49 22.9054 141.066 20.7162C140.295 20.0214 139.627 19.2267 139.06 18.3319C137.853 16.4378 137.249 14.32 137.249 11.9786C137.249 9.6276 137.806 7.54789 138.921 5.73944C140.035 3.93099 141.53 2.52231 143.406 1.51338C145.282 0.504462 147.223 0 149.229 0C151.244 0 153.018 0.276026 154.551 0.828079C156.083 1.38013 157.415 2.1749 158.548 3.21237C159.691 4.24033 160.587 5.50149 161.237 6.99584C161.887 8.49018 162.212 10.1797 162.212 12.0642C162.212 14.4057 161.632 16.4902 160.471 18.3177C159.31 20.1356 157.764 21.5396 155.832 22.5294C153.9 23.5098 151.839 24 149.647 24Z" fill="black"/>
<path d="M179.082 7.85247C179.082 6.51041 178.594 5.83938 177.619 5.83938C177.201 5.83938 176.621 5.99643 175.878 6.31053L174.025 7.09578V12.6782C177.396 11.3932 179.082 9.78465 179.082 7.85247ZM187.356 8.09518C187.356 11.141 185.889 13.5586 182.954 15.348L189 23.4432H177.995L174.081 16.8328V23.4432H164.984V0.642475C170.872 0.214158 174.731 0 176.56 0C178.39 0 179.783 0.114218 180.739 0.342653C183.377 0.961333 185.262 2.28435 186.395 4.31172C187.027 5.47293 187.347 6.73409 187.356 8.09518Z" fill="black"/>
<path d="M61.9 34.78L63.16 30.268H65.668L63.352 37H60.424L58.108 30.268H60.616L61.9 34.78ZM67.653 29.644C67.237 29.644 66.901 29.532 66.645 29.308C66.397 29.076 66.273 28.788 66.273 28.444C66.273 28.092 66.397 27.8 66.645 27.568C66.901 27.336 67.237 27.22 67.653 27.22C68.061 27.22 68.389 27.336 68.637 27.568C68.893 27.8 69.021 28.092 69.021 28.444C69.021 28.788 68.893 29.076 68.637 29.308C68.389 29.532 68.061 29.644 67.653 29.644ZM68.817 30.268V37H66.465V30.268H68.817ZM69.7724 33.628C69.7724 32.932 69.8964 32.324 70.1444 31.804C70.4004 31.284 70.7444 30.884 71.1764 30.604C71.6164 30.324 72.1044 30.184 72.6404 30.184C73.1044 30.184 73.5044 30.276 73.8404 30.46C74.1764 30.644 74.4364 30.892 74.6204 31.204V30.268H76.9724V37H74.6204V36.064C74.4364 36.376 74.1724 36.624 73.8284 36.808C73.4924 36.992 73.0964 37.084 72.6404 37.084C72.1044 37.084 71.6164 36.944 71.1764 36.664C70.7444 36.384 70.4004 35.984 70.1444 35.464C69.8964 34.936 69.7724 34.324 69.7724 33.628ZM74.6204 33.628C74.6204 33.196 74.5004 32.856 74.2604 32.608C74.0284 32.36 73.7404 32.236 73.3964 32.236C73.0444 32.236 72.7524 32.36 72.5204 32.608C72.2884 32.848 72.1724 33.188 72.1724 33.628C72.1724 34.06 72.2884 34.404 72.5204 34.66C72.7524 34.908 73.0444 35.032 73.3964 35.032C73.7404 35.032 74.0284 34.908 74.2604 34.66C74.5004 34.412 74.6204 34.068 74.6204 33.628ZM80.7966 30.184C81.2526 30.184 81.6486 30.276 81.9846 30.46C82.3286 30.644 82.5926 30.892 82.7766 31.204V30.268H85.1286V36.928C85.1286 37.56 85.0086 38.128 84.7686 38.632C84.5286 39.144 84.1526 39.552 83.6406 39.856C83.1366 40.16 82.4966 40.312 81.7206 40.312C80.6806 40.312 79.8486 40.068 79.2246 39.58C78.6006 39.092 78.2446 38.428 78.1566 37.588H80.4726C80.5206 37.804 80.6406 37.972 80.8326 38.092C81.0246 38.212 81.2726 38.272 81.5766 38.272C82.3766 38.272 82.7766 37.824 82.7766 36.928V36.064C82.5926 36.376 82.3286 36.624 81.9846 36.808C81.6486 36.992 81.2526 37.084 80.7966 37.084C80.2606 37.084 79.7726 36.944 79.3326 36.664C78.9006 36.384 78.5566 35.984 78.3006 35.464C78.0526 34.936 77.9286 34.324 77.9286 33.628C77.9286 32.932 78.0526 32.324 78.3006 31.804C78.5566 31.284 78.9006 30.884 79.3326 30.604C79.7726 30.324 80.2606 30.184 80.7966 30.184ZM82.7766 33.628C82.7766 33.196 82.6566 32.856 82.4166 32.608C82.1846 32.36 81.8966 32.236 81.5526 32.236C81.2006 32.236 80.9086 32.36 80.6766 32.608C80.4446 32.848 80.3286 33.188 80.3286 33.628C80.3286 34.06 80.4446 34.404 80.6766 34.66C80.9086 34.908 81.2006 35.032 81.5526 35.032C81.8966 35.032 82.1846 34.908 82.4166 34.66C82.6566 34.412 82.7766 34.068 82.7766 33.628ZM92.9009 33.556C92.9009 33.74 92.8889 33.924 92.8649 34.108H88.4129C88.4369 34.476 88.5369 34.752 88.7129 34.936C88.8969 35.112 89.1289 35.2 89.4089 35.2C89.8009 35.2 90.0809 35.024 90.2489 34.672H92.7569C92.6529 35.136 92.4489 35.552 92.1449 35.92C91.8489 36.28 91.4729 36.564 91.0169 36.772C90.5609 36.98 90.0569 37.084 89.5049 37.084C88.8409 37.084 88.2489 36.944 87.7289 36.664C87.2169 36.384 86.8129 35.984 86.5169 35.464C86.2289 34.944 86.0849 34.332 86.0849 33.628C86.0849 32.924 86.2289 32.316 86.5169 31.804C86.8049 31.284 87.2049 30.884 87.7169 30.604C88.2369 30.324 88.8329 30.184 89.5049 30.184C90.1689 30.184 90.7569 30.32 91.2689 30.592C91.7809 30.864 92.1809 31.256 92.4689 31.768C92.7569 32.272 92.9009 32.868 92.9009 33.556ZM90.5009 32.968C90.5009 32.68 90.4049 32.456 90.2129 32.296C90.0209 32.128 89.7809 32.044 89.4929 32.044C89.2049 32.044 88.9689 32.124 88.7849 32.284C88.6009 32.436 88.4809 32.664 88.4249 32.968H90.5009ZM98.2674 30.208C99.0434 30.208 99.6594 30.468 100.115 30.988C100.571 31.5 100.799 32.196 100.799 33.076V37H98.4474V33.388C98.4474 33.004 98.3474 32.704 98.1474 32.488C97.9474 32.264 97.6794 32.152 97.3434 32.152C96.9914 32.152 96.7154 32.264 96.5154 32.488C96.3154 32.704 96.2154 33.004 96.2154 33.388V37H93.8634V30.268H96.2154V31.228C96.4234 30.924 96.7034 30.68 97.0554 30.496C97.4074 30.304 97.8114 30.208 98.2674 30.208ZM104.958 37.084C104.35 37.084 103.806 36.984 103.326 36.784C102.854 36.576 102.478 36.296 102.198 35.944C101.926 35.584 101.774 35.18 101.742 34.732H104.022C104.054 34.948 104.154 35.116 104.322 35.236C104.49 35.356 104.698 35.416 104.946 35.416C105.138 35.416 105.29 35.376 105.402 35.296C105.514 35.216 105.57 35.112 105.57 34.984C105.57 34.816 105.478 34.692 105.294 34.612C105.11 34.532 104.806 34.444 104.382 34.348C103.902 34.252 103.502 34.144 103.182 34.024C102.862 33.904 102.582 33.708 102.342 33.436C102.11 33.164 101.994 32.796 101.994 32.332C101.994 31.932 102.102 31.572 102.318 31.252C102.534 30.924 102.85 30.664 103.266 30.472C103.69 30.28 104.198 30.184 104.79 30.184C105.67 30.184 106.362 30.4 106.866 30.832C107.37 31.264 107.662 31.832 107.742 32.536H105.618C105.578 32.32 105.482 32.156 105.33 32.044C105.186 31.924 104.99 31.864 104.742 31.864C104.55 31.864 104.402 31.9 104.298 31.972C104.202 32.044 104.154 32.144 104.154 32.272C104.154 32.432 104.246 32.556 104.43 32.644C104.614 32.724 104.91 32.808 105.318 32.896C105.806 33 106.21 33.116 106.53 33.244C106.858 33.372 107.142 33.58 107.382 33.868C107.63 34.148 107.754 34.532 107.754 35.02C107.754 35.412 107.638 35.764 107.406 36.076C107.182 36.388 106.858 36.636 106.434 36.82C106.018 36.996 105.526 37.084 104.958 37.084ZM117.639 33.556C117.639 33.74 117.627 33.924 117.603 34.108H113.151C113.175 34.476 113.275 34.752 113.451 34.936C113.635 35.112 113.867 35.2 114.147 35.2C114.539 35.2 114.819 35.024 114.987 34.672H117.495C117.391 35.136 117.187 35.552 116.883 35.92C116.587 36.28 116.211 36.564 115.755 36.772C115.299 36.98 114.795 37.084 114.243 37.084C113.579 37.084 112.987 36.944 112.467 36.664C111.955 36.384 111.551 35.984 111.255 35.464C110.967 34.944 110.823 34.332 110.823 33.628C110.823 32.924 110.967 32.316 111.255 31.804C111.543 31.284 111.943 30.884 112.455 30.604C112.975 30.324 113.571 30.184 114.243 30.184C114.907 30.184 115.495 30.32 116.007 30.592C116.519 30.864 116.919 31.256 117.207 31.768C117.495 32.272 117.639 32.868 117.639 33.556ZM115.239 32.968C115.239 32.68 115.143 32.456 114.951 32.296C114.759 32.128 114.519 32.044 114.231 32.044C113.943 32.044 113.707 32.124 113.523 32.284C113.339 32.436 113.219 32.664 113.163 32.968H115.239ZM124.871 34.996V37H123.851C122.131 37 121.271 36.148 121.271 34.444V32.224H120.443V30.268H121.271V28.636H123.635V30.268H124.859V32.224H123.635V34.48C123.635 34.664 123.675 34.796 123.755 34.876C123.843 34.956 123.987 34.996 124.187 34.996H124.871ZM132.837 30.268V37H130.473V36.04C130.273 36.344 129.997 36.592 129.645 36.784C129.293 36.968 128.889 37.06 128.433 37.06C127.649 37.06 127.029 36.804 126.573 36.292C126.125 35.772 125.901 35.068 125.901 34.18V30.268H128.241V33.88C128.241 34.264 128.341 34.568 128.541 34.792C128.749 35.008 129.021 35.116 129.357 35.116C129.701 35.116 129.973 35.008 130.173 34.792C130.373 34.568 130.473 34.264 130.473 33.88V30.268H132.837ZM136.528 31.456C136.792 31.072 137.112 30.768 137.488 30.544C137.864 30.32 138.268 30.208 138.7 30.208V32.716H138.04C137.528 32.716 137.148 32.816 136.9 33.016C136.652 33.216 136.528 33.564 136.528 34.06V37H134.176V30.268H136.528V31.456ZM140.731 29.644C140.315 29.644 139.979 29.532 139.723 29.308C139.475 29.076 139.351 28.788 139.351 28.444C139.351 28.092 139.475 27.8 139.723 27.568C139.979 27.336 140.315 27.22 140.731 27.22C141.139 27.22 141.467 27.336 141.715 27.568C141.971 27.8 142.099 28.092 142.099 28.444C142.099 28.788 141.971 29.076 141.715 29.308C141.467 29.532 141.139 29.644 140.731 29.644ZM141.895 30.268V37H139.543V30.268H141.895ZM146.103 37.084C145.495 37.084 144.951 36.984 144.471 36.784C143.999 36.576 143.623 36.296 143.343 35.944C143.071 35.584 142.919 35.18 142.887 34.732H145.167C145.199 34.948 145.299 35.116 145.467 35.236C145.635 35.356 145.843 35.416 146.09 35.416C146.283 35.416 146.435 35.376 146.547 35.296C146.659 35.216 146.715 35.112 146.715 34.984C146.715 34.816 146.623 34.692 146.439 34.612C146.255 34.532 145.951 34.444 145.527 34.348C145.047 34.252 144.647 34.144 144.326 34.024C144.007 33.904 143.727 33.708 143.487 33.436C143.255 33.164 143.139 32.796 143.139 32.332C143.139 31.932 143.247 31.572 143.463 31.252C143.679 30.924 143.995 30.664 144.411 30.472C144.835 30.28 145.343 30.184 145.935 30.184C146.815 30.184 147.507 30.4 148.011 30.832C148.515 31.264 148.807 31.832 148.887 32.536H146.763C146.723 32.32 146.627 32.156 146.475 32.044C146.331 31.924 146.135 31.864 145.887 31.864C145.695 31.864 145.547 31.9 145.443 31.972C145.347 32.044 145.299 32.144 145.299 32.272C145.299 32.432 145.391 32.556 145.575 32.644C145.759 32.724 146.055 32.808 146.463 32.896C146.951 33 147.355 33.116 147.675 33.244C148.003 33.372 148.287 33.58 148.527 33.868C148.775 34.148 148.898 34.532 148.898 35.02C148.898 35.412 148.783 35.764 148.551 36.076C148.327 36.388 148.003 36.636 147.579 36.82C147.163 36.996 146.671 37.084 146.103 37.084ZM158.851 30.208C159.699 30.208 160.363 30.464 160.843 30.976C161.331 31.488 161.575 32.188 161.575 33.076V37H159.223V33.388C159.223 33.028 159.123 32.748 158.923 32.548C158.723 32.348 158.451 32.248 158.107 32.248C157.763 32.248 157.491 32.348 157.291 32.548C157.091 32.748 156.991 33.028 156.991 33.388V37H154.639V33.388C154.639 33.028 154.539 32.748 154.339 32.548C154.147 32.348 153.879 32.248 153.535 32.248C153.183 32.248 152.907 32.348 152.707 32.548C152.507 32.748 152.407 33.028 152.407 33.388V37H150.055V30.268H152.407V31.156C152.615 30.868 152.883 30.64 153.211 30.472C153.547 30.296 153.931 30.208 154.363 30.208C154.859 30.208 155.299 30.316 155.683 30.532C156.075 30.748 156.383 31.052 156.607 31.444C156.847 31.076 157.163 30.78 157.555 30.556C157.947 30.324 158.379 30.208 158.851 30.208ZM165.995 37.084C165.323 37.084 164.719 36.944 164.183 36.664C163.655 36.384 163.239 35.984 162.935 35.464C162.631 34.944 162.479 34.332 162.479 33.628C162.479 32.932 162.631 32.324 162.935 31.804C163.247 31.284 163.667 30.884 164.195 30.604C164.731 30.324 165.335 30.184 166.007 30.184C166.679 30.184 167.279 30.324 167.807 30.604C168.343 30.884 168.763 31.284 169.067 31.804C169.379 32.324 169.535 32.932 169.535 33.628C169.535 34.324 169.379 34.936 169.067 35.464C168.763 35.984 168.343 36.384 167.807 36.664C167.271 36.944 166.667 37.084 165.995 37.084ZM165.995 35.044C166.323 35.044 166.595 34.924 166.811 34.684C167.035 34.436 167.147 34.084 167.147 33.628C167.147 33.172 167.035 32.824 166.811 32.584C166.595 32.344 166.327 32.224 166.007 32.224C165.687 32.224 165.419 32.344 165.203 32.584C164.987 32.824 164.879 33.172 164.879 33.628C164.879 34.092 164.983 34.444 165.191 34.684C165.399 34.924 165.667 35.044 165.995 35.044Z" fill="black"/>
</svg>
