<svg width="14" height="23" viewBox="0 0 14 23" fill="none" xmlns="http://www.w3.org/2000/svg">
<path d="M9.50987 11.7051L1.02429 3.21946C0.735823 2.93103 0.588253 2.56846 0.581587 2.13176C0.574885 1.69509 0.722455 1.32585 1.02429 1.02405C1.3261 0.722209 1.692 0.571289 2.122 0.571289C2.552 0.571289 2.9179 0.722209 3.21971 1.02405L12.5827 10.387C12.7777 10.582 12.9152 10.7876 12.9953 11.004C13.0755 11.2203 13.1155 11.454 13.1155 11.7051C13.1155 11.9562 13.0755 12.1899 12.9953 12.4062C12.9152 12.6225 12.7777 12.8282 12.5827 13.0232L3.21971 22.3861C2.93127 22.6746 2.5687 22.8222 2.132 22.8288C1.69534 22.8355 1.3261 22.688 1.02429 22.3861C0.722455 22.0843 0.571533 21.7184 0.571533 21.2884C0.571533 20.8584 0.722455 20.4925 1.02429 20.1907L9.50987 11.7051Z" fill="#0A2646"/>
</svg>
