<svg width="70" height="70" viewBox="0 0 70 70" fill="none" xmlns="http://www.w3.org/2000/svg">
<path d="M37.7598 34.9999L25.88 23.12C25.4761 22.7162 25.2695 22.2086 25.2602 21.5973C25.2508 20.9859 25.4574 20.469 25.88 20.0465C26.3025 19.6239 26.8148 19.4126 27.4168 19.4126C28.0188 19.4126 28.531 19.6239 28.9535 20.0465L42.0617 33.1546C42.3347 33.4276 42.5273 33.7155 42.6394 34.0184C42.7516 34.3212 42.8077 34.6484 42.8077 34.9999C42.8077 35.3514 42.7516 35.6786 42.6394 35.9815C42.5273 36.2843 42.3347 36.5723 42.0617 36.8452L28.9535 49.9534C28.5497 50.3572 28.0421 50.5638 27.4308 50.5732C26.8194 50.5826 26.3025 50.376 25.88 49.9534C25.4574 49.5309 25.2461 49.0186 25.2461 48.4166C25.2461 47.8146 25.4574 47.3023 25.88 46.8798L37.7598 34.9999Z" fill="#0A2646"/>
</svg>
