<svg width="70" height="70" viewBox="0 0 70 70" fill="none" xmlns="http://www.w3.org/2000/svg">
<path d="M32.2402 34.9999L44.12 23.12C44.5239 22.7162 44.7305 22.2086 44.7398 21.5973C44.7492 20.9859 44.5426 20.469 44.12 20.0465C43.6975 19.6239 43.1852 19.4126 42.5832 19.4126C41.9812 19.4126 41.469 19.6239 41.0465 20.0465L27.9383 33.1546C27.6653 33.4276 27.4727 33.7155 27.3606 34.0184C27.2484 34.3212 27.1923 34.6484 27.1923 34.9999C27.1923 35.3514 27.2484 35.6786 27.3606 35.9815C27.4727 36.2843 27.6653 36.5723 27.9383 36.8452L41.0465 49.9534C41.4503 50.3572 41.9579 50.5638 42.5692 50.5732C43.1806 50.5826 43.6975 50.376 44.12 49.9534C44.5426 49.5309 44.7539 49.0186 44.7539 48.4166C44.7539 47.8146 44.5426 47.3023 44.12 46.8798L32.2402 34.9999Z" fill="#0A2646"/>
</svg>
