<svg width="37" height="37" viewBox="0 0 37 37" fill="none" xmlns="http://www.w3.org/2000/svg">
<path d="M19.0336 16.887V6.78919C19.0336 6.39439 19.1675 6.06346 19.4353 5.79639C19.7032 5.5293 20.035 5.39575 20.4309 5.39575H30.2126C30.6085 5.39575 30.9394 5.5293 31.2052 5.79639C31.4711 6.06346 31.604 6.39439 31.604 6.78919V13.3708C31.604 13.7656 31.4705 14.0966 31.2034 14.3637C30.9363 14.6307 30.6054 14.7643 30.2106 14.7643H22.8284L20.2254 17.3673C19.9981 17.5946 19.7426 17.6512 19.459 17.5371C19.1754 17.4231 19.0336 17.2063 19.0336 16.887ZM21.346 12.4518H29.2915V7.70821H21.346V12.4518ZM29.9704 31.604C27.065 31.604 24.1462 30.9285 21.2141 29.5776C18.282 28.2267 15.588 26.3208 13.1323 23.8601C10.6765 21.3994 8.77309 18.7054 7.42216 15.7783C6.07122 12.8511 5.39575 9.93477 5.39575 7.02934C5.39575 6.5626 5.54992 6.17365 5.85825 5.86249C6.16659 5.55133 6.552 5.39575 7.0145 5.39575H12.0426C12.432 5.39575 12.7754 5.52275 13.0729 5.77674C13.3704 6.03073 13.5596 6.3445 13.6406 6.71804L14.5241 11.254C14.5854 11.6751 14.5725 12.0368 14.4856 12.3391C14.3986 12.6415 14.2425 12.8955 14.0171 13.1011L10.4565 16.5669C11.0297 17.6164 11.6844 18.6091 12.4207 19.5449C13.1569 20.4808 13.9539 21.3747 14.8117 22.2266C15.6577 23.0725 16.557 23.8582 17.5097 24.5836C18.4623 25.3089 19.4911 25.9839 20.596 26.6085L24.0558 23.119C24.297 22.868 24.589 22.6921 24.9319 22.5913C25.2748 22.4905 25.6311 22.4658 26.0007 22.5172L30.2817 23.3888C30.6711 23.4916 30.9888 23.6902 31.2349 23.9847C31.481 24.2792 31.604 24.6132 31.604 24.9868V29.9853C31.604 30.4478 31.4484 30.8332 31.1373 31.1415C30.8261 31.4498 30.4372 31.604 29.9704 31.604ZM9.36254 14.3789L12.1138 11.7462C12.1632 11.7067 12.1954 11.6523 12.2102 11.5832C12.225 11.514 12.2225 11.4497 12.2028 11.3904L11.5327 7.9454C11.513 7.86634 11.4784 7.80705 11.429 7.76753C11.3796 7.72799 11.3153 7.70821 11.2363 7.70821H7.93946C7.88019 7.70821 7.83078 7.72799 7.79123 7.76753C7.75169 7.80705 7.73192 7.85646 7.73192 7.91576C7.81098 8.96923 7.98343 10.0395 8.24926 11.1266C8.51512 12.2137 8.88621 13.2978 9.36254 14.3789ZM22.775 27.7024C23.7969 28.1788 24.8627 28.543 25.9725 28.795C27.0823 29.047 28.1195 29.1967 29.084 29.2441C29.1433 29.2441 29.1927 29.2243 29.2322 29.1848C29.2718 29.1453 29.2915 29.0959 29.2915 29.0366V25.7932C29.2915 25.7141 29.2718 25.6498 29.2322 25.6004C29.1927 25.551 29.1334 25.5164 29.0544 25.4967L25.8169 24.8385C25.7576 24.8187 25.7057 24.8163 25.6612 24.8311C25.6168 24.8459 25.5698 24.878 25.5204 24.9274L22.775 27.7024Z" fill="#9C9C9C"/>
</svg>
