<svg width="60" height="60" viewBox="0 0 60 60" fill="none" xmlns="http://www.w3.org/2000/svg">
<path d="M9.99994 47.4998V19.9998V46.7305V46.4782V47.4998ZM10.7693 51.2497C9.50642 51.2497 8.4375 50.8122 7.5625 49.9372C6.6875 49.0622 6.25 47.9933 6.25 46.7305V20.7691C6.25 19.5063 6.6875 18.4374 7.5625 17.5624C8.4375 16.6874 9.50642 16.2499 10.7693 16.2499H21.25V12.0192C21.25 10.7564 21.6875 9.6875 22.5625 8.8125C23.4375 7.9375 24.5064 7.5 25.7693 7.5H34.2306C35.4935 7.5 36.5624 7.9375 37.4374 8.8125C38.3124 9.6875 38.7499 10.7564 38.7499 12.0192V16.2499H49.2306C50.4935 16.2499 51.5624 16.6874 52.4374 17.5624C53.3124 18.4374 53.7499 19.5063 53.7499 20.7691V31.3604C53.1762 30.963 52.5808 30.6185 51.9638 30.3268C51.3469 30.0351 50.6922 29.7755 49.9999 29.548V20.7691C49.9999 20.5448 49.9278 20.3604 49.7836 20.2162C49.6393 20.0719 49.455 19.9998 49.2306 19.9998H10.7693C10.5449 19.9998 10.3606 20.0719 10.2163 20.2162C10.0721 20.3604 9.99994 20.5448 9.99994 20.7691V46.7305C9.99994 46.9549 10.0721 47.1392 10.2163 47.2834C10.3606 47.4277 10.5449 47.4998 10.7693 47.4998H28.9375C29.0465 48.1665 29.1899 48.8083 29.3678 49.4253C29.5457 50.0422 29.766 50.6504 30.0289 51.2497H10.7693ZM24.9999 16.2499H34.9999V12.0192C34.9999 11.7948 34.9278 11.6105 34.7836 11.4663C34.6393 11.322 34.455 11.2499 34.2306 11.2499H25.7693C25.5449 11.2499 25.3606 11.322 25.2163 11.4663C25.0721 11.6105 24.9999 11.7948 24.9999 12.0192V16.2499ZM44.9999 56.2498C41.8782 56.2498 39.2228 55.1552 37.0336 52.9661C34.8445 50.777 33.75 48.1216 33.75 44.9998C33.75 41.8781 34.8445 39.2226 37.0336 37.0335C39.2228 34.8444 41.8782 33.7499 44.9999 33.7499C48.1217 33.7499 50.7771 34.8444 52.9663 37.0335C55.1553 39.2226 56.2499 41.8781 56.2499 44.9998C56.2499 48.1216 55.1553 50.777 52.9663 52.9661C50.7771 55.1552 48.1217 56.2498 44.9999 56.2498ZM46.1057 44.5479V38.7498C46.1057 38.4485 45.9967 38.1889 45.7788 37.971C45.5608 37.753 45.3012 37.6441 44.9999 37.6441C44.6987 37.6441 44.439 37.753 44.2211 37.971C44.0032 38.1889 43.8942 38.4485 43.8942 38.7498V44.5094C43.8942 44.8107 43.9487 45.0976 44.0576 45.37C44.1666 45.6424 44.3381 45.8956 44.5721 46.1296L48.3461 49.9036C48.564 50.1216 48.8197 50.2346 49.1129 50.2426C49.4062 50.2506 49.6698 50.1376 49.9038 49.9036C50.1378 49.6697 50.2548 49.4101 50.2548 49.1248C50.2548 48.8396 50.1378 48.58 49.9038 48.346L46.1057 44.5479Z" fill="#0A2646"/>
</svg>
